<svg xmlns="http://www.w3.org/2000/svg" version="1.0" preserveAspectRatio="xMidYMid meet" viewBox="0 0 1349 931">  <g transform="translate(0.000000,1215.000000) scale(0.100000,-0.100000)" fill="#454545" stroke="none"> <path d="M0 7495 l0 -4655 6743 2 6742 3 3 4653 2 4652 -6745 0 -6745 0 0 -4655z m9229 4061 c9 -11 12 -277 11 -1058 -2 -1275 -3 -1147 15 -1154 9 -4 62 27 132 76 249 175 581 348 774 404 205 60 277 68 609 64 l295 -4 124 -33 c124 -33 233 -75 346 -133 68 -34 177 -99 185 -108 3 -3 27 -21 54 -40 155 -105 388 -403 493 -628 252 -543 328 -1274 209 -2002 -7 -47 -21 -110 -29 -140 -9 -30 -27 -96 -42 -147 -14 -51 -39 -122 -55 -159 -17 -36 -30 -71 -30 -78 0 -11 -105 -224 -148 -298 -11 -20 -38 -61 -58 -90 -21 -29 -55 -78 -76 -108 -54 -77 -152 -186 -278 -311 -140 -138 -248 -213 -449 -310 -214 -103 -381 -150 -666 -186 -214 -27 -551 -2 -785 57 -19 5 -64 16 -100 25 -109 28 -318 108 -412 159 -83 45 -103 50 -120 32 -9 -8 -18 -35 -21 -60 -8 -56 -40 -122 -66 -136 -13 -6 -145 -10 -358 -10 -186 0 -343 -4 -349 -8 -19 -12 -32 -45 -39 -97 -13 -96 -81 -337 -120 -430 -39 -92 -135 -275 -178 -341 -140 -212 -349 -394 -601 -525 -108 -55 -321 -142 -421 -172 -345 -101 -580 -137 -1000 -153 -309 -11 -900 18 -1125 56 -30 6 -89 12 -130 16 -71 6 -367 54 -457 74 -22 6 -71 14 -108 19 -37 5 -77 17 -91 26 l-24 15 0 546 c0 357 4 552 10 565 9 16 22 19 94 19 80 0 175 -21 331 -74 22 -7 69 -21 105 -31 36 -10 101 -28 145 -41 44 -13 114 -31 155 -39 41 -9 93 -21 115 -26 22 -5 127 -20 234 -34 333 -43 692 -32 926 30 55 15 118 31 139 36 83 21 225 104 315 184 80 72 184 266 217 404 19 79 42 313 39 393 -2 58 -18 93 -40 84 -6 -2 -64 -38 -127 -79 -64 -42 -170 -103 -237 -136 -114 -57 -349 -143 -429 -157 -20 -3 -86 -15 -147 -27 -93 -18 -146 -21 -340 -20 -126 0 -259 5 -295 11 -36 6 -107 18 -158 26 -86 14 -212 47 -305 82 -20 8 -63 14 -93 14 -50 0 -73 -8 -203 -74 -80 -40 -186 -87 -236 -104 -87 -29 -400 -107 -535 -133 -91 -17 -758 -24 -909 -9 -147 14 -418 67 -586 115 -183 52 -564 262 -714 394 -35 31 -89 77 -120 102 -111 92 -339 390 -397 519 -9 19 -36 78 -61 130 -25 52 -51 115 -58 140 -7 25 -27 91 -45 148 -30 99 -48 183 -70 320 -5 34 -15 81 -21 105 -15 61 -22 588 -10 757 11 156 24 250 48 345 49 192 162 500 216 590 7 11 33 56 57 100 61 109 209 306 289 384 137 132 188 177 241 213 30 21 80 55 110 76 71 50 280 158 395 205 95 39 219 75 350 102 44 10 104 24 134 32 82 22 410 45 646 45 248 0 548 -24 660 -52 44 -11 155 -38 247 -60 92 -21 175 -44 185 -49 65 -38 241 -111 265 -111 16 0 83 28 151 63 83 43 157 73 227 91 58 15 145 39 194 53 145 40 402 66 596 60 178 -5 418 -37 509 -66 31 -11 103 -33 160 -51 57 -18 174 -64 260 -102 113 -51 159 -68 171 -61 8 6 31 37 51 71 19 33 41 67 48 76 12 14 54 16 340 16 279 0 330 2 349 16 l22 15 0 863 c0 674 3 866 13 879 14 19 71 21 933 25 437 2 523 0 533 -12z"/> <path d="M3080 8870 c-385 -82 -607 -327 -699 -771 -47 -230 -53 -309 -48 -651 5 -332 15 -438 56 -608 44 -187 114 -341 213 -472 33 -43 62 -78 66 -78 4 0 32 -20 62 -45 265 -219 799 -242 1101 -48 32 21 61 45 64 54 3 9 -15 72 -41 140 -56 150 -56 149 -100 324 -60 233 -83 456 -83 820 -1 343 15 487 86 785 8 36 19 76 23 90 71 219 92 291 87 304 -15 39 -175 113 -327 152 -121 30 -327 32 -460 4z"/> <path d="M6125 8804 c-11 -3 -58 -12 -105 -21 -47 -8 -121 -29 -164 -45 -101 -37 -236 -107 -243 -126 -3 -8 13 -71 35 -141 55 -167 87 -296 119 -471 23 -130 26 -179 30 -467 7 -411 -8 -563 -77 -808 -66 -234 -66 -234 -45 -254 24 -22 125 -53 250 -77 108 -20 358 -15 495 10 206 38 499 167 529 234 12 25 16 2007 5 2049 -5 18 -23 28 -88 49 -182 58 -245 67 -491 70 -126 1 -239 1 -250 -2z"/> <path d="M9934 8790 c-231 -29 -542 -136 -676 -232 l-28 -19 0 -1134 c0 -623 3 -1141 6 -1150 9 -23 47 -40 144 -64 227 -56 505 -68 733 -31 153 24 229 47 338 103 235 120 377 293 484 587 105 290 121 716 45 1180 -36 224 -113 397 -235 529 -86 94 -248 180 -400 212 -106 22 -310 32 -411 19z"/> </g> </svg>